<?xml version="1.0" encoding="utf-8"?>
<!-- Generator: Adobe Illustrator 15.0.0, SVG Export Plug-In . SVG Version: 6.00 Build 0)  -->
<!DOCTYPE svg PUBLIC "-//W3C//DTD SVG 1.1 Basic//EN" "http://www.w3.org/Graphics/SVG/1.1/DTD/svg11-basic.dtd">
<svg version="1.1" baseProfile="basic" id="Ebene_1"
	 xmlns="http://www.w3.org/2000/svg" xmlns:xlink="http://www.w3.org/1999/xlink" x="0px" y="0px" width="42px" height="26.1px"
	 viewBox="0 0 42 26.1" xml:space="preserve">
<g>
	<defs>
		<rect id="SVGID_1_" y="0" width="42" height="26.1"/>
	</defs>
	<clipPath id="SVGID_2_">
		<use xlink:href="#SVGID_1_"  overflow="visible"/>
	</clipPath>
	<g clip-path="url(#SVGID_2_)">
		<g transform="matrix(1 0 0 1 1049.9662 282.9177)">
			<path fill="#94C11C" d="M-1041.8-276l7.3,17.5h13.7l-7.3-17.5H-1041.8z"/>
		</g>
		<g transform="matrix(0 -1 1 0 342.8992 -605.3725)">
			<path fill="#FFFFFF" d="M-607.9-321.8h-7.399v-7.4h-1.4h-3.8v7.4h-7.4v1.4v3.8h7.4v7.4h5.2v-7.4h7.399V-321.8z"/>
		</g>
		<g transform="matrix(0 -1 1 0 342.8992 -605.3725)">
			<path fill="none" stroke="#94C11C" stroke-width="1.17" d="M-607.9-321.8h-7.399v-7.4h-1.4h-3.8v7.4h-7.4v1.4v3.8h7.4v7.4h5.2
				v-7.4h7.399V-321.8z"/>
		</g>
	</g>
</g>
</svg>
