<?xml version="1.0" encoding="UTF-8"?>
<svg width="552px" height="191px" viewBox="0 0 552 191" version="1.1" xmlns="http://www.w3.org/2000/svg" xmlns:xlink="http://www.w3.org/1999/xlink">
    <title>53C9FCF0-49E2-4CB8-8EDA-45B889420288@1.00x</title>
    <g id="V05" stroke="none" stroke-width="1" fill="none" fill-rule="evenodd">
        <g id="assets:-10.06." transform="translate(-649.000000, -2139.000000)">
            <g id="illustration-water-comfort-high" transform="translate(649.000000, 2139.000000)">
                <ellipse id="Oval" fill="#EFF1F2" cx="272" cy="184" rx="91" ry="7"></ellipse>
                <rect id="Rectangle" fill="#D0D4D8" x="210.225352" y="177" width="122.535211" height="7"></rect>
                <g id="Group-5" transform="translate(219.492958, 60.000000)">
                    <circle id="Oval" fill="#A4ABB3" cx="6.975" cy="6.975" r="6.975"></circle>
                    <rect id="Rectangle" fill="#C1C7CC" x="5.4" y="7.2" width="3.15" height="10.35"></rect>
                </g>
                <circle id="Oval" fill="#8A9097" cx="226.467958" cy="92.975" r="6.975"></circle>
                <path d="M307.241778,35 C307.54353,49.7955729 307.694406,66.4016927 307.694406,84.8183594 C307.694406,112.443359 315.921102,154 268.345503,154 C236.628437,154 222.829144,134.166667 226.947623,94.5" id="Path-16" stroke="#43464A" stroke-width="2"></path>
                <path d="M214.539671,179.995926 C198.06573,179.730093 184.761409,166.487192 184.496969,150.090698 L184.492958,149.592879 L184.492958,128 L359.309859,128 L359.309859,149.592879 C359.309859,166.218334 345.903491,179.727407 329.263146,179.995926 L328.757913,180 L215.044903,180 L214.539671,179.995926 Z" id="Path" fill="#D0D4D8"></path>
                <rect id="Rectangle" fill="#C1C7CC" x="180" y="124" width="182.985915" height="4"></rect>
                <line x1="307.492958" y1="0" x2="307.492958" y2="57.125" id="Path-14" stroke="#A4ABB3" stroke-width="6"></line>
                <path d="M304.50493,43 L309.492958,43 L293.813557,13.4750222 C291.723522,9.19837979 287.084755,7.06005859 279.897255,7.06005859 C272.709755,7.06005859 268.241656,9.19837979 266.492958,13.4750222 L266.492958,16.7211693 L288.992958,16.7211693 L304.50493,43 Z" id="Path-18" fill="#C1C7CC"></path>
                <rect id="Rectangle" fill="#A4ABB3" x="266" y="14" width="23" height="3"></rect>
                <rect id="Rectangle" fill="#D0D4D8" x="0" y="157" width="552" height="2"></rect>
                <g id="Group-6" transform="translate(54.000000, 83.000000)" fill="#EFF1F2">
                    <rect id="Rectangle" x="76" y="0" width="9" height="11"></rect>
                    <rect id="Rectangle" x="0" y="0" width="9" height="11"></rect>
                    <rect id="Rectangle" x="16" y="0" width="54" height="60"></rect>
                    <rect id="Rectangle" x="16" y="62" width="54" height="3"></rect>
                    <rect id="Rectangle" x="9" y="3" width="68" height="4"></rect>
                </g>
                <g id="Group-8" transform="translate(267.000000, 20.000000)" fill="#007BC0">
                    <circle id="Oval" cx="1.8" cy="1.8" r="1.8"></circle>
                    <circle id="Oval" cx="1.8" cy="8.8" r="1.8"></circle>
                    <circle id="Oval" cx="1.8" cy="15.8" r="1.8"></circle>
                    <g id="Group-6" transform="translate(6.000000, 0.000000)">
                        <circle id="Oval" cx="1.8" cy="1.8" r="1.8"></circle>
                        <circle id="Oval" cx="1.8" cy="8.8" r="1.8"></circle>
                        <circle id="Oval" cx="1.8" cy="15.8" r="1.8"></circle>
                        <circle id="Oval" cx="1.8" cy="22.8" r="1.8"></circle>
                        <circle id="Oval" cx="1.8" cy="29.8" r="1.8"></circle>
                        <circle id="Oval" cx="1.8" cy="36.8" r="1.8"></circle>
                        <circle id="Oval" cx="1.8" cy="43.8" r="1.8"></circle>
                        <circle id="Oval" cx="1.8" cy="50.8" r="1.8"></circle>
                        <circle id="Oval" cx="1.8" cy="57.8" r="1.8"></circle>
                        <circle id="Oval" cx="1.8" cy="64.8" r="1.8"></circle>
                        <circle id="Oval" cx="1.8" cy="71.8" r="1.8"></circle>
                        <circle id="Oval" cx="1.8" cy="78.8" r="1.8"></circle>
                        <circle id="Oval" cx="1.8" cy="85.8" r="1.8"></circle>
                        <circle id="Oval" cx="1.8" cy="92.8" r="1.8"></circle>
                        <circle id="Oval" cx="1.8" cy="99.8" r="1.8"></circle>
                    </g>
                    <g id="Group-6" transform="translate(18.007042, 0.000000)">
                        <circle id="Oval" cx="1.8" cy="1.8" r="1.8"></circle>
                        <circle id="Oval" cx="1.8" cy="8.8" r="1.8"></circle>
                        <circle id="Oval" cx="1.8" cy="15.8" r="1.8"></circle>
                        <circle id="Oval" cx="1.8" cy="22.8" r="1.8"></circle>
                        <circle id="Oval" cx="1.8" cy="29.8" r="1.8"></circle>
                        <circle id="Oval" cx="1.8" cy="36.8" r="1.8"></circle>
                        <circle id="Oval" cx="1.8" cy="43.8" r="1.8"></circle>
                        <circle id="Oval" cx="1.8" cy="50.8" r="1.8"></circle>
                        <circle id="Oval" cx="1.8" cy="57.8" r="1.8"></circle>
                        <circle id="Oval" cx="1.8" cy="64.8" r="1.8"></circle>
                        <circle id="Oval" cx="1.8" cy="71.8" r="1.8"></circle>
                        <circle id="Oval" cx="1.8" cy="78.8" r="1.8"></circle>
                        <circle id="Oval" cx="1.8" cy="85.8" r="1.8"></circle>
                        <circle id="Oval" cx="1.8" cy="92.8" r="1.8"></circle>
                        <circle id="Oval" cx="1.8" cy="99.8" r="1.8"></circle>
                    </g>
                    <circle id="Oval" cx="13.8" cy="1.8" r="1.8"></circle>
                    <circle id="Oval" cx="13.8" cy="8.8" r="1.8"></circle>
                    <circle id="Oval" cx="13.8" cy="15.8" r="1.8"></circle>
                    <circle id="Oval" cx="1.8" cy="22.8" r="1.8"></circle>
                    <circle id="Oval" cx="13.8" cy="22.8" r="1.8"></circle>
                    <circle id="Oval" cx="1.8" cy="29.8" r="1.8"></circle>
                    <circle id="Oval" cx="13.8" cy="29.8" r="1.8"></circle>
                    <circle id="Oval" cx="1.8" cy="36.8" r="1.8"></circle>
                    <circle id="Oval" cx="13.8" cy="36.8" r="1.8"></circle>
                    <circle id="Oval" cx="1.8" cy="43.8" r="1.8"></circle>
                    <circle id="Oval" cx="13.8" cy="43.8" r="1.8"></circle>
                    <circle id="Oval" cx="1.8" cy="50.8" r="1.8"></circle>
                    <circle id="Oval" cx="13.8" cy="50.8" r="1.8"></circle>
                    <circle id="Oval" cx="1.8" cy="57.8" r="1.8"></circle>
                    <circle id="Oval" cx="13.8" cy="57.8" r="1.8"></circle>
                    <circle id="Oval" cx="1.8" cy="64.8" r="1.8"></circle>
                    <circle id="Oval" cx="13.8" cy="64.8" r="1.8"></circle>
                    <circle id="Oval" cx="1.8" cy="71.8" r="1.8"></circle>
                    <circle id="Oval" cx="13.8" cy="71.8" r="1.8"></circle>
                    <circle id="Oval" cx="1.8" cy="78.8" r="1.8"></circle>
                    <circle id="Oval" cx="13.8" cy="78.8" r="1.8"></circle>
                    <circle id="Oval" cx="1.8" cy="85.8" r="1.8"></circle>
                    <circle id="Oval" cx="13.8" cy="85.8" r="1.8"></circle>
                    <circle id="Oval" cx="1.8" cy="92.8" r="1.8"></circle>
                    <circle id="Oval" cx="13.8" cy="92.8" r="1.8"></circle>
                    <circle id="Oval" cx="1.8" cy="99.8" r="1.8"></circle>
                    <circle id="Oval" cx="13.8" cy="99.8" r="1.8"></circle>
                </g>
                <g id="Group-7" transform="translate(433.000000, 29.000000)">
                    <polygon id="Fill-23" fill="#EFF1F2" points="13 71 67 71 67 0 13 0"></polygon>
                    <polygon id="Fill-23" fill="#EFF1F2" points="0 71 80 71 80 67 0 67"></polygon>
                    <rect id="Rectangle" fill="#E0E2E5" x="48" y="49" width="8" height="18"></rect>
                    <rect id="Rectangle" fill="#E0E2E5" x="50" y="42" width="4" height="18"></rect>
                </g>
            </g>
        </g>
    </g>
</svg>